<svg version="1.2" xmlns="http://www.w3.org/2000/svg" viewBox="0 0 264 282" width="264" height="282">
	<title>avatar2-svg</title>
	<defs>
		<clipPath clipPathUnits="userSpaceOnUse" id="cp1">
			<path d="m132 281c-66.36 0-120-53.64-120-120 0-66.36 53.64-120 120-120 66.36 0 120 53.64 120 120 0 66.36-53.64 120-120 120z"/>
		</clipPath>
		<clipPath clipPathUnits="userSpaceOnUse" id="cp2">
			<path d="m12 161c0 66.27 53.73 120 120 120 66.27 0 120-53.73 120-120h12v-160h-264v160z"/>
		</clipPath>
		<clipPath clipPathUnits="userSpaceOnUse" id="cp3">
			<path d="m156 181.61v18.39h4c39.76 0 72 32.24 72 72v9h-200v-9c0-39.76 32.24-72 72-72h4v-18.39c-17.24-8.19-29.63-24.92-31.69-44.73-5.83-0.82-10.31-5.83-10.31-11.88v-14c0-5.95 4.32-10.88 10-11.83v-6.17c0-30.93 25.07-56 56-56 30.93 0 56 25.07 56 56v6.17c5.68 0.95 10 5.88 10 11.83v14c0 6.05-4.48 11.06-10.31 11.88-2.06 19.81-14.45 36.54-31.69 44.73z"/>
		</clipPath>
		<clipPath clipPathUnits="userSpaceOnUse" id="cp4">
			<path d="m156 181.61v18.39h4c39.76 0 72 32.24 72 72v9h-200v-9c0-39.76 32.24-72 72-72h4v-18.39c-17.24-8.19-29.63-24.92-31.69-44.73-5.83-0.82-10.31-5.83-10.31-11.88v-14c0-5.95 4.32-10.88 10-11.83v-6.17c0-30.93 25.07-56 56-56 30.93 0 56 25.07 56 56v6.17c5.68 0.95 10 5.88 10 11.83v14c0 6.05-4.48 11.06-10.31 11.88-2.06 19.81-14.45 36.54-31.69 44.73z"/>
		</clipPath>
		<clipPath clipPathUnits="userSpaceOnUse" id="cp5">
			<path d="m108 184.07c-17.92 2.01-31.72 7.48-32 21.57-25.85 10.93-44 36.52-44 66.36v9h200v-9c0-29.84-18.15-55.43-44-66.36-0.28-14.09-14.08-19.56-32-21.57v18.93c0 13.25-10.75 24-24 24-13.25 0-24-10.75-24-24z"/>
		</clipPath>
		<clipPath clipPathUnits="userSpaceOnUse" id="cp6">
			<path d="m108 184.07c-17.92 2.01-31.72 7.48-32 21.57-25.85 10.93-44 36.52-44 66.36v9h200v-9c0-29.84-18.15-55.43-44-66.36-0.28-14.09-14.08-19.56-32-21.57v18.93c0 13.25-10.75 24-24 24-13.25 0-24-10.75-24-24z"/>
		</clipPath>
		<clipPath clipPathUnits="userSpaceOnUse" id="cp7">
			<path d="m108 184.07c-17.92 2.01-31.72 7.48-32 21.57-25.85 10.93-44 36.52-44 66.36v9h200v-9c0-29.84-18.15-55.43-44-66.36-0.28-14.09-14.08-19.56-32-21.57v18.93c0 13.25-10.75 24-24 24-13.25 0-24-10.75-24-24z"/>
		</clipPath>
		<clipPath clipPathUnits="userSpaceOnUse" id="cp8">
			<path d="m0 1h264v280h-264z"/>
		</clipPath>
		<clipPath clipPathUnits="userSpaceOnUse" id="cp9">
			<path d="m190.37 119.49c0.46 7.1 0.98 14.04 0.31 21.14-1.17 12.24-2.38 27.6-11.71 36.96-8.44 8.45-20.68 10.22-31.24 15.55-1.21 0.61-2.78 1.35-4.48 2-1.93 1.69-6.17 2.86-11.08 2.86-4.68 0-8.74-1.07-10.79-2.63-1.95-0.69-3.75-1.54-5.11-2.23-10.56-5.33-22.8-7.1-31.24-15.55-9.33-9.36-10.54-24.72-11.71-36.96-0.67-7.1-0.15-14.04 0.31-21.14 0.11-1.74 0.98-20.49 1.98-20.49 3.42 14.07 5 28.43 7.48 42.67q0.78 4.45 1.69 8.88c0.12 0.62 0.25 2.92 0.86 3.21 1.85 0.89 5.62-3.81 6.63-4.87 2.53-2.67 5.04-5.36 8.13-7.45 6.24-4.23 13.53-6.73 21.13-7.32 3.18-0.25 7.48 0.18 10.47 1.99 3-1.81 7.29-2.24 10.47-1.99 7.6 0.59 14.89 3.09 21.13 7.32 3.08 2.09 5.6 4.78 8.13 7.45 1.01 1.06 4.78 5.76 6.63 4.87 0.61-0.29 0.74-2.59 0.86-3.21q0.91-4.43 1.69-8.88c2.48-14.24 4.06-28.6 7.48-42.67 1 0 1.87 18.75 1.98 20.49zm-38.38 32.41c-3.86-5.65-9.09-2.92-14.94-3.56-1.6-0.18-3.19-0.62-4.55-1.34-1.35 0.72-2.95 1.16-4.54 1.34-5.85 0.64-11.09-2.09-14.95 3.56-2.71 3.97-3.92 11.03-1.02 15.23 3.87 5.59 6.76 1.82 10.88-1.25 2.48-1.85 6.18-4.15 9.63-4.04 3.46-0.11 7.16 2.19 9.64 4.04 4.12 3.07 7.01 6.84 10.88 1.25 2.9-4.2 1.69-11.26-1.03-15.23z"/>
		</clipPath>
		<clipPath clipPathUnits="userSpaceOnUse" id="cp10">
			<path d="m182.68 39.95c5.41-4.95 6.71-14.99 3.64-21.5-3.77-8-11.42-9-18.75-5.48-6.91 3.31-13.05 4.42-20.62 2.81-7.26-1.54-14.14-4.26-21.65-4.7-12.32-0.74-24.3 3.83-32.7 13.05-1.6 1.76-2.89 3.77-4.11 5.8-0.98 1.63-2.08 3.38-2.49 5.26-0.2 0.9 0.17 3.1-0.28 3.83-0.48 0.79-2.3 1.52-3.07 2.1-1.57 1.19-2.92 2.53-4.18 4.05-2.66 3.22-4.13 6.59-5.37 10.57-4.1 13.25-4.45 29 0.86 42.01 0.7 1.73 2.9 5.35 4.18 1.63 0.26-0.73-0.33-3.19-0.33-3.93 0-2.72 1.51-20.73 8.05-30.82 2.13-3.28 11.97-15.58 13.98-15.68 1.07 1.7 11.88 12.51 39.94 11.24 12.67-0.57 22.4-6.26 24.74-8.72 1.03 5.53 12.99 13.81 14.82 17.22 5.26 9.85 6.43 30.31 8.44 30.27 2.01-0.04 3.45-5.24 3.87-6.23 3.07-7.38 3.59-16.64 3.26-24.56-0.42-10.2-4.63-21.23-12.23-28.22z"/>
		</clipPath>
	</defs>
	<style>
		.s0 { fill: #e6e6e6 } 
		.s1 { fill: #6e07f3 } 
		.s2 { fill: #d0c6ac } 
		.s3 { fill: #ffdbb4 } 
		.s4 { opacity: .1;fill: #000000 } 
		.s5 { fill: #b7c1db } 
		.s6 { fill: #262e33 } 
		.s7 { fill: #f4f4f4 } 
		.s8 { opacity: .2;fill: #000000 } 
		.s9 { fill: #000000 } 
		.s10 { fill: #4a312c } 
		.s11 { fill: #28354b } 
	</style>
	<g id="avatarmaker">
		<g id="avatarmaker/Circle">
			<g id="Layer">
				<g id="Circle">
					<path id="path-1" class="s0" d="m132 281c-66.4 0-120-53.6-120-120 0-66.4 53.6-120 120-120 66.4 0 120 53.6 120 120 0 66.4-53.6 120-120 120z"/>
					<g id="Clip-Path: ColorPaletteBlue01" clip-path="url(#cp1)">
						<g id="ColorPaletteBlue01">
							<path id="ðŸ–Color" class="s1" d="m12 41h240v240h-240z"/>
						</g>
					</g>
				</g>
				<g id="Mask">
				</g>
				<g id="Clip-Path: avatarmaker" clip-path="url(#cp2)">
					<g id="avatarmaker">
						<g id="Body">
							<path id="path-5" fill-rule="evenodd" class="s2" d="m156 181.6v18.4h4c39.8 0 72 32.2 72 72v9h-200v-9c0-39.8 32.2-72 72-72h4v-18.4c-17.2-8.2-29.6-24.9-31.7-44.7-5.8-0.8-10.3-5.8-10.3-11.9v-14c0-5.9 4.3-10.9 10-11.8v-6.2c0-30.9 25.1-56 56-56 30.9 0 56 25.1 56 56v6.2c5.7 0.9 10 5.9 10 11.8v14c0 6.1-4.5 11.1-10.3 11.9-2.1 19.8-14.5 36.5-31.7 44.7z"/>
							<g id="Clip-Path: Skin/ðŸ‘¶ðŸ½-03-Brown" clip-path="url(#cp3)">
								<g id="Skin/ðŸ‘¶ðŸ½-03-Brown">
									<g id="Color">
										<path id="Layer" class="s3" d="m0 37h264v244h-264z"/>
									</g>
								</g>
							</g>
							<g id="Clip-Path: Neck-Shadow" clip-path="url(#cp4)">
								<path id="Neck-Shadow" fill-rule="evenodd" class="s4" d="m188 116v23c0 30.9-25.1 56-56 56-30.9 0-56-25.1-56-56v-23 15c0 30.9 25.1 56 56 56 30.9 0 56-25.1 56-56z"/>
							</g>
						</g>
						<g id="Clothing/Hoodie">
							<path id="react-path-389" fill-rule="evenodd" class="s5" d="m108 184.1c-17.9 2-31.7 7.5-32 21.5-25.9 11-44 36.6-44 66.4v9h200v-9c0-29.8-18.1-55.4-44-66.4-0.3-14-14.1-19.5-32-21.5v18.9c0 13.3-10.7 24-24 24-13.3 0-24-10.7-24-24z"/>
							<g id="Clip-Path: Color/Palette/Gray-01" clip-path="url(#cp5)">
								<g id="Color/Palette/Gray-01">
									<path id="ðŸ–Color" class="s6" d="m0 171h264v110h-264z"/>
								</g>
							</g>
							<g id="Clip-Path: Straps" clip-path="url(#cp6)">
								<path id="Straps" fill-rule="evenodd" class="s7" d="m102 232.7v48.3h-7v-51.8q3.3 1.9 7 3.5zm67-3.5v40.3c0 1.9-1.6 3.5-3.5 3.5-1.9 0-3.5-1.6-3.5-3.5v-36.8q3.7-1.6 7-3.5z"/>
							</g>
							<g id="Clip-Path: Shadow" clip-path="url(#cp7)">
								<path id="Shadow" fill-rule="evenodd" class="s8" d="m91 183.7c-15.1 2.9-25.5 8.5-25.5 19.6 0 19.7 33 35.7 66.5 35.7 33.5 0 66.5-16 66.5-35.7 0-11.1-10.4-16.7-25.5-19.6 9.1 3.4 15 9 15 18.4 0 20.4-27.8 36.9-56 36.9-28.2 0-56-16.5-56-36.9 0-9.4 5.9-15 15-18.4z"/>
							</g>
						</g>
						<g id="Face">
							<g id="Mouth/Twinkle" style="opacity: .6">
								<path id="Mouth" class="s9" d="m118 151c0 5.4 6.2 9 14 9 7.8 0 14-3.6 14-9 0-1.1-0.9-2-2-2-1.3 0-1.9 0.9-2 2-1.2 2.9-4.3 4.7-10 5-5.7-0.3-8.8-2.1-10-5-0.1-1.1-0.7-2-2-2-1.1 0-2 0.9-2 2z"/>
							</g>
							<g id="Nose/Default" style="opacity: .2">
								<path id="Nose" fill-rule="evenodd" class="s9" d="m120 131c0 4.4 5.4 8 12 8 6.6 0 12-3.6 12-8"/>
							</g>
							<g id="Eyes/Wink-ðŸ˜‰" style="opacity: .6">
								<path id="Eye" class="s9" d="m106 119c-3.3 0-6-2.7-6-6 0-3.3 2.7-6 6-6 3.3 0 6 2.7 6 6 0 3.3-2.7 6-6 6z"/>
								<path id="Winky-Wink" fill-rule="evenodd" class="s9" d="m146.6 116c1.6-4 5.5-6.9 10.4-7.2 4.8-0.4 9.1 2 11.2 5.6 0.6 1.1-0.1 2.1-0.9 1.4-2.6-1.9-6.2-3-10-2.7-3.8 0.3-7 1.7-9.3 3.9-0.9 0.8-1.9 0.1-1.4-1z"/>
							</g>
							<g id="Eyebrow/Outline/Up-Down" style="opacity: .6">
								<path id="Eyebrow" class="s9" d="m91.6 97.2c4.5-6.4 14-9.5 23.7-6.4 1.1 0.3 2.2-0.2 2.6-1.3 0.3-1-0.3-2.2-1.3-2.5-11.4-3.7-22.8 0.1-28.3 7.8-0.6 0.9-0.4 2.2 0.5 2.8 0.9 0.7 2.2 0.5 2.8-0.4z"/>
								<path id="Eyebrow" class="s9" d="m172.4 104.2c-3.9-5.6-14.7-8.6-23.9-6.4-1.1 0.3-2.2-0.4-2.4-1.4-0.3-1.1 0.4-2.2 1.4-2.5 10.8-2.6 23.2 1 28.1 7.9 0.7 0.9 0.5 2.2-0.4 2.8-0.9 0.7-2.2 0.5-2.8-0.4z"/>
							</g>
						</g>
						<g id="Top">
							<g id="Mask">
							</g>
							<g id="Clip-Path: Top/Short-Hair/Short-Waved" clip-path="url(#cp8)">
								<g id="Top/Short-Hair/Short-Waved">
									<g id="Layer">
										<g id="Facial-Hair/Beard-Medium">
											<path id="react-path-350" fill-rule="evenodd" class="s10" d="m190.4 119.5c0.4 7.1 1 14 0.3 21.1-1.2 12.3-2.4 27.6-11.7 37-8.5 8.4-20.7 10.2-31.3 15.5-1.2 0.7-2.7 1.4-4.4 2-2 1.7-6.2 2.9-11.1 2.9-4.7 0-8.8-1.1-10.8-2.6-2-0.7-3.8-1.6-5.1-2.3-10.6-5.3-22.8-7.1-31.3-15.5-9.3-9.4-10.5-24.7-11.7-37-0.7-7.1-0.1-14 0.3-21.1 0.1-1.8 1-20.5 2-20.5 3.4 14.1 5 28.4 7.5 42.7q0.8 4.4 1.7 8.8c0.1 0.7 0.2 3 0.8 3.3 1.9 0.8 5.7-3.9 6.7-4.9 2.5-2.7 5-5.4 8.1-7.5 6.2-4.2 13.5-6.7 21.1-7.3 3.2-0.2 7.5 0.2 10.5 2 3-1.8 7.3-2.2 10.5-2 7.6 0.6 14.9 3.1 21.1 7.3 3.1 2.1 5.6 4.8 8.1 7.5 1 1 4.8 5.7 6.7 4.9 0.6-0.3 0.7-2.6 0.8-3.3q0.9-4.4 1.7-8.8c2.5-14.3 4.1-28.6 7.5-42.7 1 0 1.9 18.7 2 20.5zm-38.4 32.4c-3.9-5.6-9.1-2.9-15-3.6-1.5-0.1-3.1-0.6-4.5-1.3-1.3 0.7-2.9 1.2-4.5 1.3-5.9 0.7-11.1-2-15 3.6-2.7 4-3.9 11-1 15.2 3.9 5.6 6.8 1.8 10.9-1.2 2.5-1.9 6.1-4.2 9.6-4.1 3.5-0.1 7.2 2.2 9.6 4.1 4.2 3 7.1 6.8 10.9 1.2 2.9-4.2 1.7-11.2-1-15.2z"/>
											<g id="Clip-Path: Color/Hair/Brown" clip-path="url(#cp9)">
												<g id="Color/Hair/Brown">
													<g id="Color">
														<path id="Layer" class="s10" d="m16 73h264v244h-264z"/>
													</g>
												</g>
											</g>
										</g>
										<path id="react-path-318" fill-rule="evenodd" class="s11" d="m182.7 39.9c5.4-4.9 6.7-14.9 3.6-21.5-3.8-7.9-11.4-8.9-18.7-5.4-6.9 3.3-13.1 4.4-20.6 2.8-7.3-1.6-14.2-4.3-21.7-4.7-12.3-0.8-24.3 3.8-32.7 13-1.6 1.8-2.9 3.8-4.1 5.8-1 1.7-2.1 3.4-2.5 5.3-0.2 0.9 0.2 3.1-0.3 3.8-0.5 0.8-2.3 1.5-3 2.1-1.6 1.2-3 2.6-4.2 4.1-2.7 3.2-4.2 6.6-5.4 10.5-4.1 13.3-4.4 29 0.9 42 0.7 1.8 2.9 5.4 4.1 1.7 0.3-0.7-0.3-3.2-0.3-3.9 0-2.8 1.5-20.8 8.1-30.9 2.1-3.3 11.9-15.5 13.9-15.6 1.1 1.6 11.9 12.5 40 11.2 12.6-0.6 22.4-6.3 24.7-8.7 1 5.5 13 13.8 14.8 17.2 5.3 9.8 6.5 30.3 8.5 30.3 2-0.1 3.4-5.3 3.8-6.3 3.1-7.3 3.6-16.6 3.3-24.5-0.4-10.2-4.6-21.3-12.2-28.3z"/>
										<g id="Clip-Path: Skin/ðŸ‘¶ðŸ½-03-Brown" clip-path="url(#cp10)">
											<g id="Skin/ðŸ‘¶ðŸ½-03-Brown">
												<g id="Color">
													<path id="Layer" class="s10" d="m-1 1h264v280h-264z"/>
												</g>
											</g>
										</g>
									</g>
								</g>
							</g>
						</g>
					</g>
				</g>
			</g>
		</g>
	</g>
</svg>